# xmcd
#
# Track frame offsets: 
#        150
#        27071
#        59054
#        88015
#        108895
#        136958
#        160685
#        174216
#        210920
#        235961
#        261454
#
# Disc length: 3716 seconds
#
# Revision: 0
# Processed by: cddbd v1.5.2PL0 Copyright (c) Steve Scherf et al.
# Submitted via: ExactAudioCopy v1.0b1
#
DISCID=8b0e820b
DTITLE=Lage Lund - Standards
DYEAR=2007
DGENRE=Jazz
TTITLE0=Darn That Dream
TTITLE1=Stardust
TTITLE2=Time After Time
TTITLE3=A Beautiful Friendship
TTITLE4=Heres That Rainy Day
TTITLE5=That Old Feeling
TTITLE6=I Love You Porgy
TTITLE7=Turn Out The Stars
TTITLE8=Moonlight In Vermont
TTITLE9=Spring Can Really Hang You Up The Most
TTITLE10=Fitou
EXTD=
EXTT0=
EXTT1=
EXTT2=
EXTT3=
EXTT4=
EXTT5=
EXTT6=
EXTT7=
EXTT8=
EXTT9=
EXTT10=
PLAYORDER=
